<svg width="70" height="70" viewBox="0 0 70 70" fill="none" xmlns="http://www.w3.org/2000/svg">
<path d="M67.0833 55.4167C67.0833 56.9638 66.4687 58.4475 65.3748 59.5415C64.2808 60.6354 62.7971 61.25 61.25 61.25H8.74999C7.20289 61.25 5.71916 60.6354 4.6252 59.5415C3.53124 58.4475 2.91666 56.9638 2.91666 55.4167V23.3333C2.91666 21.7862 3.53124 20.3025 4.6252 19.2085C5.71916 18.1146 7.20289 17.5 8.74999 17.5H20.4167L26.25 8.75H43.75L49.5833 17.5H61.25C62.7971 17.5 64.2808 18.1146 65.3748 19.2085C66.4687 20.3025 67.0833 21.7862 67.0833 23.3333V55.4167Z" stroke="#7C3F30" stroke-width="4" stroke-linecap="round" stroke-linejoin="round"/>
<path d="M35 49.5833C41.4433 49.5833 46.6667 44.36 46.6667 37.9167C46.6667 31.4733 41.4433 26.25 35 26.25C28.5567 26.25 23.3333 31.4733 23.3333 37.9167C23.3333 44.36 28.5567 49.5833 35 49.5833Z" stroke="#7C3F30" stroke-width="4" stroke-linecap="round" stroke-linejoin="round"/>
</svg>
