<svg width="70" height="70" viewBox="0 0 70 70" fill="none" xmlns="http://www.w3.org/2000/svg">
<path d="M52.5 29.1666H48.825C47.7338 24.9404 45.479 21.1049 42.3169 18.0961C39.1548 15.0873 35.2121 13.0258 30.9369 12.1458C26.6616 11.2658 22.2253 11.6026 18.1319 13.1179C14.0385 14.6333 10.4523 17.2664 7.78066 20.7182C5.10903 24.1699 3.45914 28.3018 3.01849 32.6443C2.57783 36.9869 3.36406 41.366 5.28785 45.284C7.21164 49.2021 10.1958 52.5019 13.9014 54.8087C17.6069 57.1154 21.8852 58.3365 26.25 58.3333H52.5C56.3677 58.3333 60.0771 56.7968 62.812 54.0619C65.5469 51.327 67.0833 47.6177 67.0833 43.75C67.0833 39.8822 65.5469 36.1729 62.812 33.438C60.0771 30.7031 56.3677 29.1666 52.5 29.1666Z" stroke="#7C3F30" stroke-width="4" stroke-linecap="round" stroke-linejoin="round"/>
</svg>
