<svg width="39" height="39" viewBox="0 0 39 39" fill="none" xmlns="http://www.w3.org/2000/svg">
<path d="M24.0833 8.33317C25.7112 8.65078 27.2073 9.44693 28.3801 10.6197C29.5529 11.7925 30.3491 13.2886 30.6667 14.9165M24.0833 1.6665C27.4655 2.04223 30.6193 3.5568 33.0271 5.96152C35.4348 8.36624 36.9533 11.5182 37.3333 14.8998M35.6667 28.1998V33.1998C35.6686 33.664 35.5735 34.1235 35.3875 34.5487C35.2016 34.974 34.9288 35.3558 34.5868 35.6696C34.2448 35.9834 33.841 36.2223 33.4012 36.371C32.9615 36.5197 32.4956 36.5749 32.0333 36.5332C26.9047 35.9759 21.9783 34.2234 17.65 31.4165C13.623 28.8576 10.2089 25.4435 7.65 21.4165C4.8333 17.0685 3.08041 12.1182 2.53333 6.9665C2.49168 6.50562 2.54646 6.0411 2.69417 5.60254C2.84188 5.16398 3.07929 4.76099 3.39128 4.41921C3.70327 4.07743 4.08301 3.80435 4.50632 3.61737C4.92963 3.43039 5.38723 3.33361 5.85 3.33317H10.85C11.6588 3.32521 12.443 3.61163 13.0563 4.13906C13.6696 4.66648 14.0701 5.39891 14.1833 6.19984C14.3944 7.79995 14.7858 9.37105 15.35 10.8832C15.5742 11.4797 15.6228 12.128 15.4898 12.7513C15.3569 13.3746 15.0481 13.9467 14.6 14.3998L12.4833 16.5165C14.8559 20.6891 18.3108 24.1439 22.4833 26.5165L24.6 24.3998C25.0531 23.9517 25.6253 23.6429 26.2485 23.51C26.8718 23.3771 27.5201 23.4256 28.1167 23.6498C29.6288 24.2141 31.1999 24.6055 32.8 24.8165C33.6096 24.9307 34.349 25.3385 34.8776 25.9623C35.4061 26.5861 35.6869 27.3825 35.6667 28.1998Z" stroke="white" stroke-width="3.5" stroke-linecap="round" stroke-linejoin="round"/>
</svg>
