<svg width="70" height="70" viewBox="0 0 70 70" fill="none" xmlns="http://www.w3.org/2000/svg">
<path d="M14.5833 61.25H55.4167C58.6383 61.25 61.25 58.6383 61.25 55.4167V14.5833C61.25 11.3617 58.6383 8.75 55.4167 8.75H14.5833C11.3617 8.75 8.75 11.3617 8.75 14.5833V55.4167C8.75 58.6383 11.3617 61.25 14.5833 61.25ZM14.5833 61.25L46.6667 29.1667L61.25 43.75M29.1667 24.7917C29.1667 27.2079 27.2079 29.1667 24.7917 29.1667C22.3754 29.1667 20.4167 27.2079 20.4167 24.7917C20.4167 22.3754 22.3754 20.4167 24.7917 20.4167C27.2079 20.4167 29.1667 22.3754 29.1667 24.7917Z" stroke="#7C3F30" stroke-width="4" stroke-linecap="round" stroke-linejoin="round"/>
</svg>
