<svg width="70" height="58" viewBox="0 0 70 58" fill="none" xmlns="http://www.w3.org/2000/svg">
<path d="M67.0833 5.66672V23.1667M67.0833 23.1667H49.5833M67.0833 23.1667L53.55 10.4501C50.4153 7.31381 46.5372 5.02274 42.2776 3.79065C38.018 2.55855 33.5157 2.42558 29.1908 3.40414C24.8659 4.38271 20.8594 6.44091 17.5451 9.38669C14.2308 12.3325 11.7167 16.0698 10.2375 20.2501M2.91667 52.3334V34.8334M2.91667 34.8334H20.4167M2.91667 34.8334L16.45 47.5501C19.5847 50.6863 23.4628 52.9774 27.7224 54.2095C31.982 55.4416 36.4843 55.5745 40.8092 54.596C45.1341 53.6174 49.1406 51.5592 52.4549 48.6134C55.7692 45.6676 58.2833 41.9303 59.7625 37.7501" stroke="#7C3F30" stroke-width="4" stroke-linecap="round" stroke-linejoin="round"/>
</svg>
